<svg xmlns="http://www.w3.org/2000/svg" xmlns:xlink="http://www.w3.org/1999/xlink" viewBox="0 0 502.27 92.18"><defs><clipPath id="a" transform="translate(0)"><rect x="158.71" y="12.43" width="185.41" height="56.14" style="fill:none"/></clipPath></defs><title>pea</title><path d="M502.27,14.68L459.14,0V90.15l36.14-20,7-55.5h0Z" transform="translate(0)" style="fill:#b52e31"/><path d="M417.08,14.95l6.43,55.5,35.64,19.7V0L417.08,14.95h0Z" transform="translate(0)" style="fill:#e23237"/><path d="M468.14,47.35l-9-18.56L451.4,47.35h16.75Zm3.4,7.8H447.93l-5.28,13.18-9.83.18,26.32-58.47,27.29,58.47h-9.11l-5.78-13.36h0Z" transform="translate(0)" style="fill:#fff"/><path d="M86.07,56.5a4.38,4.38,0,0,0-3.64-2.93,8.31,8.31,0,0,0-2.9.16,26.14,26.14,0,0,1-4.47.59,86.2,86.2,0,0,0,9.12-21.7c3-11.72,1.41-17.06-.48-19.48-5-6.39-12.3-9.83-21.11-9.93a37.41,37.41,0,0,0-11,1.54,41,41,0,0,0-6.42-.59A20.86,20.86,0,0,0,34,6.91a51,51,0,0,0-7.89-2C18.42,3.66,12.2,4.65,7.65,7.86,2.14,11.75-.42,18.52.06,28,0.2,31,1.88,40.08,4.52,48.74A71.82,71.82,0,0,0,9.34,61c2.38,4.5,4.92,7.15,7.77,8.1a7.63,7.63,0,0,0,7.56-1.64,6.58,6.58,0,0,0,1.59,1.37,10.57,10.57,0,0,0,3,1.26,16.1,16.1,0,0,0,10.48-.62c0,0.55,0,1.06,0,1.51,0,0.73,0,1.44.07,2.11,0.18,4.52.49,8,1.4,10.49,0.05,0.14.12,0.34,0.19,0.56a12.63,12.63,0,0,0,3.15,5.55,9.4,9.4,0,0,0,6.64,2.47,14.89,14.89,0,0,0,3.1-.35c3.32-.71,7.09-1.79,9.81-5.68C66.72,82.48,68,77,68.2,68.25c0-.25.06-0.48,0.08-0.71l0.05-.46,0.61,0.05H69.1a24,24,0,0,0,10-1.74C81.16,64.47,87.58,61.08,86.07,56.5ZM34,31.46a0.78,0.78,0,0,1,.33-0.52,3.11,3.11,0,0,1,2.14-.31,4.28,4.28,0,0,1,1.45.45,1,1,0,0,1,.69,1,2.3,2.3,0,0,1-2.18,1.48l-0.28,0a2.8,2.8,0,0,1-1.78-1.11A1.52,1.52,0,0,1,34,31.46ZM64.19,30c1-.14,2.15,0,2.23.65a0.4,0.4,0,0,1,0,.07,1.72,1.72,0,0,1-.54,1,2.52,2.52,0,0,1-1.43.78l-0.26,0a2.12,2.12,0,0,1-2-1.31C62.14,30.62,63.15,30.15,64.19,30Z" transform="translate(0)"/><path d="M83.64,57.16C83.25,56,82,55.62,80,56c-6.07,1.25-8.25.39-9-.14a83.75,83.75,0,0,0,10.71-24A45.67,45.67,0,0,0,83.3,21.53c0-3.2-.5-5.55-1.62-7-4.53-5.79-11.18-8.89-19.22-9A33,33,0,0,0,51.35,7.32a27.7,27.7,0,0,0-6.25-.8A18.07,18.07,0,0,0,34.38,9.47a47.89,47.89,0,0,0-8.7-2.28C18.62,6.05,13,6.92,9,9.75c-4.77,3.38-7,9.42-6.55,18,0.14,2.87,1.78,11.71,4.36,20.17,3.4,11.14,7.1,17.45,11,18.74a4.9,4.9,0,0,0,1.56.26c1.42,0,3.16-.64,5-2.81,3-3.61,5.81-6.64,6.85-7.75a11,11,0,0,0,4.93,1.32s0,0.09,0,.13c-0.35.41-.63,0.77-0.87,1.07-1.19,1.51-1.44,1.82-5.27,2.61-1.09.23-4,.82-4,2.85,0,2.22,3.42,3.15,3.82,3.25a16.39,16.39,0,0,0,4,.51,11.54,11.54,0,0,0,7.95-3C41.63,73,42,80.8,42.91,83.18c0.78,1.94,2.68,6.69,8.67,6.69a13.82,13.82,0,0,0,2.91-.33c6.26-1.34,9-4.11,10-10.21,0.56-3.26,1.53-11,2-15.22a12.26,12.26,0,0,0,3.53.44A21,21,0,0,0,78,63C80.3,62,84.38,59.39,83.64,57.16ZM62.77,8.07c7.21,0.16,12.91,2.86,16.95,8,3.1,4-.31,22-10.18,37.5l-0.3-.38L69.11,53a13.72,13.72,0,0,0,2-7h0A34.85,34.85,0,0,0,70.72,41a29.07,29.07,0,0,1-.31-4.3,30.67,30.67,0,0,1,.42-3.83,23.91,23.91,0,0,0,.39-4.75,2,2,0,0,0,0-.66c-0.16-1.7-2.11-6.81-6.07-11.43a28.25,28.25,0,0,0-5.86-5.19,25.86,25.86,0,0,0-3.79-2.07A32.62,32.62,0,0,1,62.77,8.07Zm5.47,33.2c0.37,3.12.76,6.32-.73,9.49a11.72,11.72,0,0,1-.66-1.35c-0.19-.45-0.59-1.17-1.14-2.16-2.16-3.88-7.23-13-4.64-16.66,0.77-1.1,2.73-2.24,7.65-1.63a25.45,25.45,0,0,1-.37,3.52,32.77,32.77,0,0,0-.45,4.13A31.19,31.19,0,0,0,68.25,41.27ZM22.43,62.48c-2,2.4-3.37,1.94-3.82,1.79-3-1-6.37-7.22-9.39-17.11A111.87,111.87,0,0,1,5,27.59C4.58,20,6.43,14.64,10.46,11.78,17,7.14,27.78,9.91,32.12,11.33l-0.19.18a18.08,18.08,0,0,0-1.72,2C24.92,20.68,25,30.78,25,31.67h0c0,0.29,0,.71.06,1.28a50.85,50.85,0,0,1-.26,10.25,13,13,0,0,0,2.66,10q0.36,0.45.76,0.87a11.92,11.92,0,0,0,.88.83C27.9,56.2,25.25,59.09,22.43,62.48ZM30,52.34a10.18,10.18,0,0,1-.83-1,10.57,10.57,0,0,1-1.92-7.8,52.92,52.92,0,0,0,.28-10.74c0-.3,0-0.56,0-0.77,1-.92,5.85-3.5,9.28-2.71a3.78,3.78,0,0,1,2.92,3.26c2.05,9.5.27,13.46-1.16,16.64-0.3.66-.58,1.27-0.81,1.91l-0.08.22-0.1.28a32.38,32.38,0,0,0-1.17,3.52A8.86,8.86,0,0,1,30,52.34Zm11.66,8.91a1.3,1.3,0,0,1-.17.34C38.34,66,33.71,66,30.39,65.15a5.49,5.49,0,0,1-1.66-.71,8.11,8.11,0,0,1,1.77-.53C35,63,35.7,62.33,37.22,60.4c0.35-.44.75-0.94,1.29-1.55h0c0.81-.91,1.19-0.76,1.86-0.48a2.39,2.39,0,0,1,1.08,1.13,3,3,0,0,1,.22.54A2.1,2.1,0,0,1,41.68,61.25Zm24.18-4.59a4.78,4.78,0,0,0-1.55,3.11,9.87,9.87,0,0,0-.07,1.87h0c-0.08,1-.35,3.41-0.69,6.22,0,0,0,.06,0,0.09-0.48,4-1.09,8.68-1.48,10.95C61.18,84,59.29,86,54,87.1c-5.52,1.18-7.47-1.63-8.75-4.85-0.82-2-1.23-11.19-1-21.36,0,0,0,0,0-.06a0.19,0.19,0,0,0,0,0,4.62,4.62,0,0,0,0-.72h0a5.3,5.3,0,0,0-2.86-4h0a3.86,3.86,0,0,0-2.52-.31,29.67,29.67,0,0,1,1.08-3.24l0.19-.5c0.21-.56.47-1.14,0.75-1.76s0.7-1.55,1-2.47c1.17-3.18,2-7.72.29-15.72-0.83-3.86-3.62-5.74-7.84-5.3a18.13,18.13,0,0,0-6,1.87L27.62,29c0.3-3.59,1.36-10,5.1-14.63q0.47-.58,1-1.11A15,15,0,0,1,45.05,9a24.07,24.07,0,0,1,10.37,2.45,25.09,25.09,0,0,1,8,6.33,27.9,27.9,0,0,1,5,8.62c-4.65-.47-7.81.45-9.41,2.74-3.49,5,1.91,14.66,4.5,19.31,0.48,0.85.89,1.59,1,1.9a15.69,15.69,0,0,0,2,3.47c0.26,0.35.51,0.66,0.73,0.94s0.48,0.6.66,0.86A5.41,5.41,0,0,0,65.86,56.66ZM77,60.76A18.09,18.09,0,0,1,70.85,62c-2.53.12-3.81-.28-4.12-0.53A5.42,5.42,0,0,1,67,59.35a1.92,1.92,0,0,1,.11-0.24A2.41,2.41,0,0,1,68.83,58l0.53-.16,0.35,0.25c2,1.34,5.66,1.49,10.77.43h0.06A13.74,13.74,0,0,1,77,60.76Z" transform="translate(0)" style="fill:#fff"/><path d="M39.71,32.59a3.78,3.78,0,0,0-2.92-3.26c-3.43-.79-8.24,1.79-9.28,2.71,0,0.21,0,.47,0,0.77a52.92,52.92,0,0,1-.28,10.74,10.57,10.57,0,0,0,1.92,7.8,10.18,10.18,0,0,0,.83,1,8.86,8.86,0,0,0,6.36,2.82,32.38,32.38,0,0,1,1.17-3.52l0.1-.28,0.08-.22c0.24-.64.52-1.26,0.81-1.91C40,46,41.77,42.09,39.71,32.59Zm-1.14-.49a2.3,2.3,0,0,1-2.18,1.48l-0.28,0a2.8,2.8,0,0,1-1.78-1.11,1.52,1.52,0,0,1-.37-1,0.78,0.78,0,0,1,.33-0.52,3.11,3.11,0,0,1,2.14-.31,4.28,4.28,0,0,1,1.45.45A1,1,0,0,1,38.57,32.1Z" transform="translate(0)" style="fill:#336791"/><path d="M32.12,11.33l-0.19.18a18.08,18.08,0,0,0-1.72,2C24.92,20.68,25,30.78,25,31.67h0c0,0.29,0,.71.06,1.28a50.85,50.85,0,0,1-.26,10.25,13,13,0,0,0,2.66,10q0.36,0.45.76,0.87a11.92,11.92,0,0,0,.88.83c-1.22,1.3-3.87,4.19-6.68,7.58-2,2.4-3.37,1.94-3.82,1.79-3-1-6.37-7.22-9.39-17.11A111.87,111.87,0,0,1,5,27.59C4.58,20,6.43,14.64,10.46,11.78,17,7.14,27.78,9.91,32.12,11.33Z" transform="translate(0)" style="fill:#336791"/><path d="M67.92,36.6a32.77,32.77,0,0,1,.45-4.13,25.45,25.45,0,0,0,.37-3.52c-4.92-.61-6.88.52-7.65,1.63-2.59,3.71,2.47,12.79,4.64,16.66,0.56,1,1,1.72,1.14,2.16a11.72,11.72,0,0,0,.66,1.35c1.49-3.16,1.1-6.37.73-9.49A31.19,31.19,0,0,1,67.92,36.6Zm-2-4.85a2.52,2.52,0,0,1-1.43.78l-0.26,0a2.12,2.12,0,0,1-2-1.31c-0.08-.62.93-1.09,2-1.24s2.15,0,2.23.65a0.4,0.4,0,0,1,0,.07A1.72,1.72,0,0,1,65.88,31.74Z" transform="translate(0)" style="fill:#336791"/><path d="M41.68,61.25a1.3,1.3,0,0,1-.17.34C38.34,66,33.71,66,30.39,65.15a5.49,5.49,0,0,1-1.66-.71,8.11,8.11,0,0,1,1.77-.53C35,63,35.7,62.33,37.22,60.4c0.35-.44.75-0.94,1.29-1.55h0c0.81-.91,1.19-0.76,1.86-0.48a2.39,2.39,0,0,1,1.08,1.13,3,3,0,0,1,.22.54A2.1,2.1,0,0,1,41.68,61.25Z" transform="translate(0)" style="fill:#336791"/><path d="M67.29,54.76c0.25,0.3.48,0.6,0.66,0.86a5.41,5.41,0,0,0-2.09,1,4.78,4.78,0,0,0-1.55,3.11,9.87,9.87,0,0,0-.07,1.87h0c-0.08,1-.35,3.41-0.69,6.22,0,0,0,.06,0,0.09-0.48,4-1.09,8.68-1.48,10.95C61.18,84,59.29,86,54,87.1c-5.52,1.18-7.47-1.63-8.75-4.85-0.82-2-1.23-11.19-1-21.36,0,0,0,0,0-.06a0.19,0.19,0,0,0,0,0,4.62,4.62,0,0,0,0-.72h0a5.3,5.3,0,0,0-2.86-4h0a3.86,3.86,0,0,0-2.52-.31,29.67,29.67,0,0,1,1.08-3.24l0.19-.5c0.21-.56.47-1.14,0.75-1.76s0.7-1.55,1-2.47c1.17-3.18,2-7.72.29-15.72-0.83-3.86-3.62-5.74-7.84-5.3a18.13,18.13,0,0,0-6,1.87L27.62,29c0.3-3.59,1.36-10,5.1-14.63q0.47-.58,1-1.11A15,15,0,0,1,45.05,9a24.07,24.07,0,0,1,10.37,2.45,25.09,25.09,0,0,1,8,6.33,27.9,27.9,0,0,1,5,8.62c-4.65-.47-7.81.45-9.41,2.74-3.49,5,1.91,14.66,4.5,19.31,0.48,0.85.89,1.59,1,1.9a15.69,15.69,0,0,0,2,3.47C66.82,54.17,67.06,54.48,67.29,54.76Z" transform="translate(0)" style="fill:#336791"/><path d="M69.54,53.58l-0.3-.38L69.11,53a13.72,13.72,0,0,0,2-7h0A34.85,34.85,0,0,0,70.72,41a29.07,29.07,0,0,1-.31-4.3,30.67,30.67,0,0,1,.42-3.83,23.91,23.91,0,0,0,.39-4.75,2,2,0,0,0,0-.66c-0.16-1.7-2.11-6.81-6.07-11.43a28.25,28.25,0,0,0-5.86-5.19,25.86,25.86,0,0,0-3.79-2.07,32.62,32.62,0,0,1,7.25-.68c7.21,0.16,12.91,2.86,16.95,8C82.82,20,79.41,38,69.54,53.58Z" transform="translate(0)" style="fill:#336791"/><path d="M80.53,58.47A13.74,13.74,0,0,1,77,60.76,18.09,18.09,0,0,1,70.85,62c-2.53.12-3.81-.28-4.12-0.53A5.42,5.42,0,0,1,67,59.35a1.92,1.92,0,0,1,.11-0.24A2.41,2.41,0,0,1,68.83,58l0.53-.16,0.35,0.25c2,1.34,5.66,1.49,10.77.43h0.06Z" transform="translate(0)" style="fill:#336791"/><path d="M38.57,32.1a2.3,2.3,0,0,1-2.18,1.48l-0.28,0a2.8,2.8,0,0,1-1.78-1.11,1.52,1.52,0,0,1-.37-1,0.78,0.78,0,0,1,.33-0.52,3.11,3.11,0,0,1,2.14-.31,4.28,4.28,0,0,1,1.45.45A1,1,0,0,1,38.57,32.1Z" transform="translate(0)" style="fill:#fff"/><path d="M66.43,30.72a1.72,1.72,0,0,1-.54,1,2.52,2.52,0,0,1-1.43.78l-0.26,0a2.12,2.12,0,0,1-2-1.31c-0.08-.62.93-1.09,2-1.24s2.15,0,2.23.65A0.4,0.4,0,0,1,66.43,30.72Z" transform="translate(0)" style="fill:#fff"/><g style="clip-path:url(#a)"><g style="clip-path:url(#a)"><path d="M184.29,51.72a30.48,30.48,0,0,1-10.35,2.81c-1.44.08-3,.24-4.25,0.24a6.69,6.69,0,0,0,1.93,3.45,7.56,7.56,0,0,0,5.85,2.17,13.9,13.9,0,0,0,4.65-.8,8.6,8.6,0,0,1,3.21-1,3.78,3.78,0,0,1,3.93,3.93c0,2.41-2,3.85-4.73,4.73a29.89,29.89,0,0,1-9.14,1.2c-4.17,0-8.5-1.12-11.63-3.93-3-2.65-5.05-6.74-5.05-12.51a21.82,21.82,0,0,1,5.53-15A20.52,20.52,0,0,1,180,30.23a14,14,0,0,1,8.74,2.65,9.12,9.12,0,0,1,3.45,7.3c0,5.29-3.29,9.22-7.86,11.55m-14.84-3.37c0.88,0,1.92-.08,3-0.16a22.59,22.59,0,0,0,5.69-1.28c2.81-1.12,4.73-3,4.73-5.53a2.78,2.78,0,0,0-.88-2.09,3.64,3.64,0,0,0-2.65-1,9,9,0,0,0-6.9,3.53,13.59,13.59,0,0,0-3,6.5" transform="translate(0)" style="fill:#38c681"/><path d="M251.82,50.28l-1.92,13.55a5,5,0,0,1-5.29,4.73c-2.65,0-5.05-1.44-5.05-5a31.38,31.38,0,0,1,.32-3.69l1.44-10a31.2,31.2,0,0,0,.32-4.25,7.8,7.8,0,0,0-.32-2.49c-0.56-2-2.25-3.53-5.13-3.53a6.54,6.54,0,0,0-5.53,2.81A10,10,0,0,0,228.56,48l-2.25,15.88c-0.48,3.29-2.65,4.73-5.21,4.73-2.81,0-5.13-1.44-5.13-5a31.26,31.26,0,0,1,.32-3.69l1.68-12c0.4-2.41.32-4.17-.48-5.45-0.72-1.68-2.25-2.81-4.81-2.81a6.86,6.86,0,0,0-6.1,3.29A12.93,12.93,0,0,0,205.06,48l-2.25,15.8c-0.48,3.37-2.73,4.81-5.29,4.81s-5.05-1.44-5.05-5a20.27,20.27,0,0,1,.32-3.69l1.84-13c0.64-4.73,2.08-8.26,4.49-10.91,3.45-3.93,8.74-5.69,14.84-5.69a16.17,16.17,0,0,1,7.38,1.52A12.17,12.17,0,0,1,225.11,35a17.56,17.56,0,0,1,5-3.37,20.24,20.24,0,0,1,7.46-1.36c6.18,0,10.91,2.41,13.15,6.9a18.4,18.4,0,0,1,1.6,8.18,37.32,37.32,0,0,1-.48,4.89" transform="translate(0)" style="fill:#38c681"/><path d="M286.22,62a18.79,18.79,0,0,1-14.68,6.58c-6.1,0-10.51-1.76-13.15-5.37-3-3.93-3.77-9.46-2.73-16.76l4-29.11c0.48-3.37,2.73-4.89,5.29-4.89,2.73,0,5.05,1.52,5.05,5a28.82,28.82,0,0,1-.24,3.77L268.09,32.8h0.16a12.79,12.79,0,0,1,8.1-2.41,14,14,0,0,1,10.75,4.33c2.57,2.81,4.09,6.9,4.09,12.27a23.59,23.59,0,0,1-5,15M279,41.62a5.83,5.83,0,0,0-5.29-2.57,11.47,11.47,0,0,0-6.82,2.33l-1,6.9c-0.4,3.21-.16,6.26,1,8.34a5.69,5.69,0,0,0,5.29,2.81c2.65,0,4.73-1.68,6.09-3.93a16.27,16.27,0,0,0,2-7.78,11.08,11.08,0,0,0-1.36-6.1" transform="translate(0)" style="fill:#38c681"/><path d="M309.39,21.17l-6,42.67a5.08,5.08,0,0,1-5.29,4.73c-2.73,0-5.13-1.44-5.13-4.89a20.81,20.81,0,0,1,.4-3.77l5.93-42.59c0.48-3.37,2.73-4.89,5.29-4.89,2.73,0,5.05,1.52,5.05,5a28.76,28.76,0,0,1-.24,3.77" transform="translate(0)" style="fill:#38c681"/><path d="M343.8,52.61l-1.6,11.63a4.74,4.74,0,0,1-4.81,4.33c-2.09,0-3.93-.88-4.49-3a14.72,14.72,0,0,1-9.38,2.89,14.19,14.19,0,0,1-10.67-4.25c-2.57-2.81-4.09-6.9-4.09-12.27A23.15,23.15,0,0,1,313.64,37a18,18,0,0,1,14.28-6.66c6.09,0,10.43,1.92,13,5.53,2.25,3,3.21,6.82,3.21,11.47a40.31,40.31,0,0,1-.32,5.21M332.89,42.34a5.71,5.71,0,0,0-5.21-2.81,7,7,0,0,0-6.1,4,15.33,15.33,0,0,0-2,7.7,11.26,11.26,0,0,0,1.36,6.1,5.91,5.91,0,0,0,5.29,2.57A11.68,11.68,0,0,0,333,57.66l1-6.82c0.08-1,.16-2,0.16-3a11.75,11.75,0,0,0-1.2-5.53" transform="translate(0)" style="fill:#38c681"/></g></g><line x1="121.12" y1="62.93" x2="121.12" y2="31.14" style="fill:none;stroke:#000;stroke-miterlimit:10;stroke-width:4px"/><line x1="105.23" y1="47.04" x2="137.01" y2="47.04" style="fill:none;stroke:#000;stroke-miterlimit:10;stroke-width:4px"/><line x1="381.7" y1="62.93" x2="381.7" y2="31.14" style="fill:none;stroke:#000;stroke-miterlimit:10;stroke-width:4px"/><line x1="365.81" y1="47.04" x2="397.6" y2="47.04" style="fill:none;stroke:#000;stroke-miterlimit:10;stroke-width:4px"/></svg>
