<?xml version="1.0" encoding="UTF-8" standalone="no"?>
<svg width="86px" height="26px" viewBox="0 0 86 26" version="1.1" xmlns="http://www.w3.org/2000/svg" xmlns:xlink="http://www.w3.org/1999/xlink" xmlns:sketch="http://www.bohemiancoding.com/sketch/ns">
    <!-- Generator: Sketch 3.5.2 (25235) - http://www.bohemiancoding.com/sketch -->
    <title>logo</title>
    <desc>Created with Sketch.</desc>
    <defs></defs>
    <g id="Page-1" stroke="none" stroke-width="1" fill="none" fill-rule="evenodd" sketch:type="MSPage">
        <g id="API" sketch:type="MSArtboardGroup" transform="translate(-124.000000, -16.000000)" fill="#FFFFFF">
            <g id="logo" sketch:type="MSLayerGroup" transform="translate(124.000000, 16.000000)">
                <g id="emla_logo-copy" sketch:type="MSShapeGroup">
                    <path d="M11.846822,18.1671429 C10.3987022,18.9085714 8.69014975,19.28 7.05600666,19.4642857 C6.38775374,19.5014286 5.68229617,19.5757143 5.08702163,19.5757143 C5.21661941,20.1846298 5.52733523,20.7403005 5.9785025,21.17 C6.57234609,21.8 7.4266223,22.17 8.69014975,22.17 C9.42396397,22.1696011 10.1523111,22.0439827 10.8437271,21.7985714 C11.4003661,21.5757143 11.8096173,21.3542857 12.3290516,21.3542857 C13.5539434,21.3542857 14.149218,22.2814286 14.149218,23.1714286 C14.149218,24.2842857 13.2205324,24.9514286 11.9584359,25.3585714 C10.6591348,25.8028571 9.02499168,25.9142857 7.72425957,25.9142857 C5.7924792,25.9142857 3.78772047,25.3957143 2.33960067,24.0971429 C0.928685524,22.8757143 0,20.9857143 0,18.3157143 C0,15.6457143 0.858569052,13.2728571 2.56282862,11.3828571 C4.30858569,9.38285714 6.90861897,8.23142857 9.84206323,8.23142857 C11.5506156,8.23142857 12.9615308,8.71285714 13.8902163,9.45428571 C14.9190204,10.2700398 15.5092244,11.5171243 15.4871547,12.8285714 C15.4871547,15.2757143 13.9631947,17.0928571 11.846822,18.1671429 L11.846822,18.1671429 Z M4.97826955,16.61 C5.3875208,16.61 5.86975042,16.5728571 6.38918469,16.5357143 C7.28066556,16.4242857 8.20935108,16.2757143 9.02642263,15.9428571 C10.3257238,15.4242857 11.2172047,14.5342857 11.2172047,13.3842857 C11.2240369,13.0194415 11.0752575,12.6688846 10.8079534,12.42 C10.4768932,12.1150332 10.0373395,11.95504 9.58735441,11.9757143 C8.39823627,11.9757143 7.24775374,12.5685714 6.39347754,13.6071429 C5.68229617,14.3857143 5.20006656,15.4614286 4.9768386,16.61 L4.97826955,16.61 Z" id="Shape"></path>
                    <path d="M43.1159068,17.5 L42.224426,23.7657143 C42.0384027,25.2857143 40.9623295,25.9528571 39.7732113,25.9528571 C38.5483195,25.9528571 37.4336106,25.2857143 37.4336106,23.6542857 C37.4476097,23.0833965 37.4953912,22.5138322 37.5767055,21.9485714 L38.2449584,17.3142857 C38.3374485,16.6630663 38.3852581,16.0062985 38.3880532,15.3485714 C38.4020006,14.9624254 38.3536861,14.5765514 38.2449584,14.2057143 C37.9902496,13.2728571 37.2046589,12.5714286 35.8738769,12.5714286 C34.8554745,12.5460984 33.8925133,13.0334888 33.3110483,13.8685714 C32.791614,14.4614286 32.4939767,15.2771429 32.3451581,16.4271429 L31.3048586,23.7685714 C31.0816306,25.2885714 30.0785358,25.9557143 28.8908486,25.9557143 C27.5915474,25.9557143 26.5140433,25.2885714 26.5140433,23.6571429 C26.5279487,23.0862486 26.5757308,22.5166788 26.6571381,21.9514286 L27.437005,16.39 C27.6230283,15.2771429 27.5800998,14.4614286 27.213777,13.8685714 C26.8860899,13.0885714 26.1863561,12.5714286 24.9929451,12.5714286 C23.6564393,12.5714286 22.7277537,13.2014286 22.1711148,14.0914286 C21.7769317,14.8136259 21.5362831,15.6092677 21.4642263,16.4285714 L20.4239268,23.7328571 C20.2006988,25.29 19.1618303,25.9571429 17.9727121,25.9571429 C16.7478203,25.9571429 15.6331115,25.29 15.6331115,23.6585714 C15.6285659,23.0868317 15.6764641,22.5158771 15.7762063,21.9528571 L16.6347754,15.9528571 C16.9324126,13.7657143 17.6006656,12.1342857 18.7139434,10.91 C20.3108819,9.09285714 22.7620965,8.27714286 25.5824958,8.27714286 C26.9190017,8.27714286 28.0337105,8.5 28.9996007,8.98142857 C29.6771331,9.35109221 30.2713428,9.85581771 30.7453577,10.4642857 C31.4190667,9.81339514 32.2004241,9.28368932 33.0549085,8.89857143 C34.1563072,8.47318979 35.3283083,8.25943919 36.509218,8.26857143 C39.3711148,8.26857143 41.5604659,9.38142857 42.5993344,11.4571429 C43.1187687,12.4957143 43.3419967,13.7928571 43.3419967,15.2385714 C43.3165253,15.9965241 43.2409981,16.7519739 43.1159068,17.5 L43.1159068,17.5 Z" id="Shape"></path>
                    <path d="M59.0452246,22.9128571 C57.4854908,24.8042857 55.0385691,25.9528571 52.2482196,25.9528571 C49.4263894,25.9528571 47.382995,25.1371429 46.1581032,23.4685714 C44.7843927,21.6514286 44.4123461,19.0928571 44.8960067,15.72 L46.7562396,2.26142857 C46.9751747,0.704285714 48.0154742,0 49.2045923,0 C50.4666889,0 51.544193,0.704285714 51.544193,2.29857143 C51.545185,2.88133483 51.5079003,3.46353611 51.432579,4.04142857 L50.655574,9.41714286 L50.7299834,9.41714286 C51.8446922,8.63857143 52.8835607,8.30428571 54.4804992,8.30428571 C56.5238935,8.30428571 58.231015,8.97142857 59.4573378,10.3042857 C60.6464559,11.6014286 61.3519135,13.4928571 61.3519135,15.9771429 C61.3476206,18.7242857 60.4947754,21.1342857 59.0452246,22.9128571 L59.0452246,22.9128571 Z M55.7039601,13.4957143 C55.2217304,12.7542857 54.4418636,12.3085714 53.2527454,12.3085714 C52.1752413,12.3085714 51.1363727,12.6428571 50.0960732,13.3842857 L49.6539101,16.5714286 C49.4678869,18.0542857 49.5795008,19.4628571 50.1361398,20.4285714 C50.655574,21.2857143 51.4354409,21.7257143 52.5873544,21.7257143 C53.8136772,21.7257143 54.7781364,20.9471429 55.4091847,19.9085714 C56.0150725,18.8058773 56.3343684,17.5691263 56.3378702,16.3114286 C56.3350083,15.2385714 56.1861897,14.2 55.7039601,13.4957143 L55.7039601,13.4957143 Z" id="Shape"></path>
                    <path d="M69.7773378,4.04142857 L66.9912812,23.7657143 C66.7680532,25.2857143 65.7291847,25.9528571 64.5357737,25.9528571 C63.2736772,25.9528571 62.1589684,25.2857143 62.1589684,23.6914286 C62.1676851,23.106033 62.2299516,22.5226563 62.3449917,21.9485714 L65.0981364,2.26142857 C65.3199334,0.704285714 66.3602329,0 67.5479201,0 C68.8100166,0 69.8875208,0.704285714 69.8875208,2.29857143 C69.8890778,2.88130628 69.8522708,3.46351335 69.7773378,4.04142857 L69.7773378,4.04142857 Z" id="Shape"></path>
                    <path d="M85.7138103,18.5714286 L84.9711481,23.9471429 C84.7479201,25.3185714 83.78203,25.9471429 82.7431614,25.9471429 C81.7772712,25.9471429 80.922995,25.5385714 80.6639933,24.5757143 C79.5192346,25.4328571 78.2127787,25.91 76.318203,25.91 C74.3148752,25.91 72.5977371,25.2428571 71.3785691,23.9442857 C70.1894509,22.6471429 69.4839933,20.7557143 69.4839933,18.2714286 C69.4839933,15.5271429 70.3010649,13.1185714 71.7491847,11.3757143 C73.3089185,9.48428571 75.5741098,8.29857143 78.3601664,8.29857143 C81.1819967,8.29857143 83.1881864,9.18857143 84.3701498,10.8571429 C85.4118802,12.2357143 85.8569052,14.0142857 85.8569052,16.1657143 C85.8612083,16.9698603 85.8134102,17.7734423 85.7138103,18.5714286 L85.7138103,18.5714286 Z M80.6625624,13.8257143 C80.1803328,13.01 79.3632612,12.5285714 78.2485524,12.5285714 C76.9864559,12.5285714 76.0205657,13.3071429 75.4252912,14.3857143 C74.7942429,15.4242857 74.4966057,16.7585714 74.4966057,17.9457143 C74.4966057,19.0214286 74.6397005,20.0214286 75.1276539,20.7642857 C75.6098835,21.4685714 76.3539767,21.9514286 77.5788686,21.9514286 C78.6563727,21.9514286 79.6580366,21.6171429 80.6983361,20.9128571 L81.1347754,17.76 C81.17198,17.3157143 81.2091847,16.8328571 81.2091847,16.3885714 C81.2130006,15.3866667 81.0288852,14.5338095 80.6568386,13.83 L80.6625624,13.8257143 Z" id="Shape"></path>
                </g>
            </g>
        </g>
    </g>
</svg>
