<?xml version="1.0" encoding="UTF-8" standalone="no"?>
<svg width="33px" height="32px" viewBox="0 0 33 32" version="1.1" xmlns="http://www.w3.org/2000/svg" xmlns:xlink="http://www.w3.org/1999/xlink" xmlns:sketch="http://www.bohemiancoding.com/sketch/ns">
    <!-- Generator: Sketch 3.5.2 (25235) - http://www.bohemiancoding.com/sketch -->
    <title>Fill 3</title>
    <desc>Created with Sketch.</desc>
    <defs></defs>
    <g id="Page-1" stroke="none" stroke-width="1" fill="none" fill-rule="evenodd" sketch:type="MSPage">
        <g id="Start" sketch:type="MSArtboardGroup" transform="translate(-1277.000000, -14.000000)" fill="#FFFFFF">
            <g id="Group-3" sketch:type="MSLayerGroup" transform="translate(1208.000000, 14.000000)">
                <path d="M85.288,0 C76.294,0 69,7.293 69,16.29 C69,23.487 73.667,29.592 80.14,31.746 C80.955,31.896 81.252,31.393 81.252,30.961 C81.252,30.575 81.238,29.55 81.23,28.191 C76.699,29.175 75.743,26.007 75.743,26.007 C75.002,24.125 73.934,23.624 73.934,23.624 C72.455,22.614 74.046,22.634 74.046,22.634 C75.681,22.749 76.541,24.313 76.541,24.313 C77.994,26.802 80.354,26.083 81.282,25.666 C81.43,24.614 81.851,23.896 82.316,23.489 C78.699,23.078 74.896,21.68 74.896,15.438 C74.896,13.66 75.531,12.205 76.573,11.067 C76.405,10.655 75.846,8.998 76.733,6.756 C76.733,6.756 78.1,6.318 81.212,8.426 C82.511,8.064 83.905,7.884 85.29,7.877 C86.674,7.884 88.067,8.064 89.368,8.426 C92.478,6.318 93.843,6.756 93.843,6.756 C94.732,8.998 94.173,10.655 94.006,11.067 C95.05,12.205 95.68,13.66 95.68,15.438 C95.68,21.696 91.871,23.073 88.243,23.476 C88.827,23.979 89.348,24.973 89.348,26.493 C89.348,28.67 89.328,30.427 89.328,30.961 C89.328,31.397 89.622,31.904 90.448,31.745 C96.916,29.586 101.579,23.485 101.579,16.29 C101.579,7.293 94.285,0 85.288,0" id="Fill-3" sketch:type="MSShapeGroup"></path>
            </g>
        </g>
    </g>
</svg>